<svg xmlns="http://www.w3.org/2000/svg" xmlns:xlink="http://www.w3.org/1999/xlink"
    width="1920" height="1920">
    <defs>
        <linearGradient id="a">
            <stop offset="0" style="stop-color:#ffffe4;stop-opacity:1" />
            <stop offset="1" style="stop-color:#caca2d;stop-opacity:1" />
        </linearGradient>
        <linearGradient xlink:href="#a" id="c" x1="-1.5" x2="158.11" y1="250.58" y2="195.59"
            gradientTransform="translate(41.86 30.77)scale(7.19592)" gradientUnits="userSpaceOnUse" />
        <filter id="b" width="1.06" height="1.1" x="-.03" y="-.05"
            style="color-interpolation-filters:sRGB">
            <feGaussianBlur stdDeviation="1.71" />
        </filter>
    </defs>
    <path
        d="M115.56 184.59c-1.04.03-2.54.2-5 .48a80 80 0 0
    1-6.7.27c-5.44 0-12.63.66-24.1
    2.19-2.78.37-3.84.61-6.35.44-1.46-.1-2.38.7-2.38.7l3.92
    6.51-3.1-.32s-1.97-4.1-2.6-4.78c-.35-.1-.72-.35-2.44-.67-5.71-1.06-4.47-1.33-12.29
    2.73a673 673 0 0 0-23.69 12.84c-8.5 4.81-10.9 6.32-10.9 6.84 0
    .22.49.51 1.16.7.64.16 3.03.84 5.31 1.5l8.32 2.4c2.3.65 5.33 1.46
    6.75 1.78s2.68.7 2.81.81c.48.44-10.49 15.2-20.33 27.38-2.87
    3.55-3.14 3.96-2.73 4.21 30.57 4.64 67.03 7.67 114.54
    13.72v-.85c0-1.68-.08-13.58-.17-26.44-.17-22.72-.16-23.4.34-23.66.28-.15
    2.29-.6 4.46-1 5.73-1.06 8.42-1.67 12.4-2.82 2.92-.84 3.55-1.1
    3.55-1.53 0-.56-.3-.75-10.09-6.53l-7.9-4.69a732 732 0 0
    0-18.94-11.13c-1.61-.84-2.1-1.15-3.85-1.09"
        style="opacity:.727492;fill:#000;fill-opacity:1;stroke:none;stroke-width:.114711;stroke-miterlimit:4;stroke-dasharray:none;stroke-opacity:1;filter:url(#b)"
        transform="matrix(13.2759 0 0 20.81631 -210.06 -3708.7)" />
    <path
        d="M631.38 228.27c-22.42.39-69.04 41.18-105.63 80.39C420.32
    421.62 331.6 457.58 218.12 557.04 107.09 654.34 75.73 684.8 75.73
    695.37c0 4.49 6.4 10.42 15.13 14.05 8.32 3.46 39.55 17.17 69.4
    30.48l108.66 48.4c29.9 13.32 69.55 29.66 88.1 36.29 18.56 6.62 35.1
    14 36.77 16.4l477.02 224.14L1109.64 414S726.2 265.93 719.98
    255.4c-4.68-1.8-9.48-7.1-32-13.55-27.95-8-43.14-13.8-56.6-13.58z"
        style="fill:#dee5fc;fill-opacity:1;stroke:#000;stroke-width:1.90392;stroke-opacity:1"
    />
    <path
        d="M1328.85 144.1c-1.3 0-2.66.09-4.08.17-13.68.77-33.26
    4.24-65.47 9.7-17.62 3-56.96 5.5-87.43 5.54-70.96.13-164.9
    13.34-314.8 44.3-36.21 7.47-50.04 12.39-82.78 8.92-19.07-2.02-31.15
    14.18-31.15 14.18l51.15 131.82 222.78 539.24s477.57-188.28
    793.97-248.42c38.06-17 46.27-22.5 46.27-30.94
    0-11.52-3.82-15.36-131.7-132.19-46.99-42.92-93.44-85.6-103.23-94.86-73.07-69.09-222.59-205.28-247.4-225.34-19.73-15.96-26.57-22.43-46.13-22.12z"
        style="fill:#f9d6ce;fill-opacity:1;stroke:#000;stroke-width:1.90392;stroke-opacity:1"
    />
    <path
        d="M646.1 337.7c-2.34-.01-3.76.17-4.47.52-10.42 5.1-81.32
    145.05-133.6 263.68-17.3 39.29-53.87 119.65-81.26 178.57-27.4
    58.93-58.46 126.69-69.04 150.57-36.7 82.83-145.79 303.3-229.49
    463.78-37.55 72-40.97 80.2-35.6 85.34 520.98 144.72 1145.18 142.04
    1492.09 268.63 1.35-356.26
    2.97-768.1-1.94-1131.6-1.52-90.74-3.4-129.2-6.52-133.19-4.98-6.38-103.22-23.16-322.3-55.06-202.65-29.5-269.59-26.41-329.25-36.18-179.06-29.3-262.18-55.04-278.61-55.07Z"
        style="fill:url(#c);fill-opacity:1;stroke:#000;stroke-width:1.90392;stroke-opacity:1"
    />
    <g
        style="font-style:oblique;font-weight:700;font-size:16.9333px;line-height:1.25;font-family:Purisa;-inkscape-font-specification:&quot;Purisa Bold Oblique&quot;;fill:#000f66;fill-opacity:1;stroke-width:.090817">
        <path
            d="M-88.98 267.42q-.14.26-.13.34.04.07.28.12.5.09
        2.3.08l3.4-.04 1.63-.03a.6.6 0 0 1
        .38.24q.15.2.05.43-.13.29-.75.5-.82.29-3.88.37-3.11.06-4.77-.23-.7-.12-.86-.35-.16-.24.2-.9c.33-.61
        1.4-2.1 3.13-4.38q2.49-3.24
        3.46-4.46.36-.44.77-.37.23.05.28.3.06.23-.08.52-.3.6-2.6 3.75a55
        55 0 0 0-2.81 4.11m14.97-4.09q.26.05.27.2t-.08.43q-.39 1.02-2
        3.74-1.69 2.88-2.1 3.17-.46.18-.83.11a1 1 0 0 1-.37-.14 1 1 0 0
        1-.14-.17l.02-.13q.15-.39 1.7-3.01a77 77 0 0 1
        2.02-3.28q.5-.74.92-.86.35-.1.59-.06m.99-2.56q.11-.3.47-.43.36-.15.58-.11.18.03.39.23.2.18.13.4-.09.22-.44.48t-.7.19a.6.6
        0 0 1-.4-.26q-.14-.22-.03-.5m-1.82
        10.24q.14-.39.44-.59.31-.2.53-.17.4.07.4.62 0
        .33.41.7.43.37.94.46.65.12 1.59-.48.92-.58
        1-.87.16-.5-.44-.82a13 13 0 0
        1-.95-.55q-.48-.32-.73-.43-.37-.16-.82-.7-.44-.56-.26-1.07.21-.59
        1.62-1.28t2.79-.68l1.52.16q.39.07.54.2.16.1.3.46.21.48.13.76a.4.4
        0 0 1-.2.25.5.5 0 0 1-.36.06.7.7 0 0 1-.36-.17 1 1 0 0
        1-.14-.25q-.03-.13-.2-.26-.14-.14-.45-.2-.64-.11-1.56.08a7 7 0 0
        0-1.58.48q-.64.29-.7.45-.05.18.24.51.3.32 1 .68 1.18.63 1.6
        1.08.45.46.28
        1.04-.1.32-.43.8-.34.46-.65.74-.48.44-1.42.83-.93.42-1.62.3a7 7
        0 0 1-1.22-.36q-.73-.26-1.05-.51-.2-.19-.26-.55a1.5 1.5 0 0 1
        .07-.72m12.38 3.47q-.42-.08-.57-.3t-.01-.77a4 4 0 0 1
        .32-.91q.23-.5.41-1.01.19-.53.54-1.6t.74-2.17l.2-.58.16-.4.08-.24.06-.18q-.47-.06-1.33-.08-.85-.04-1.13-.09-.53-.1-.45-.4.1-.42.73-.52a7
        7 0 0 1 1.49-.05q.86.05
        1.1-.01.14-.07.37-.5.2-.43.4-1.14.2-.7.46-1.23.18-.36.49-.49.32-.13.6-.08.35.07.3.35-.06.26-.48
        1.55-.43 1.3-.5 1.54l.8.05q.67.02 1
        .08.79.15.72.53-.1.6-2.06.5l-.85-.03-.78 1.94q-.75 1.89-1.22
        3.66-.48 1.8-.59 2.06-.28.64-1
        .52m6.95-.8q-.03.18.23.35t.5.21q.32.06.87-.01.57-.07.96-.15l.38-.1q.07-.18.72-.5.66-.32.67-.4
        0-.08-.07-.2-.06-.11-.4-.29-.32-.18-.9-.28-1.25-.23-2.05.27-.81.5-.9
        1.1m6.78-3.54q-.03.37-.63 2.27-.62 1.95-.83
        2.98-.14.33-.45.54-.32.19-.47.16-.47-.08-.36-1.01l.13-.73q-.66.45-1.79.8-1.13.32-1.79.2a5
        5 0 0
        1-.99-.31q-.54-.24-.74-.48-.19-.25-.1-.82.2-1.07.84-1.55.64-.47
        1.84-.75 1.24-.31 2.18-.14.4.07.64.22a1 1 0 0 1 .34.3l.13.16a1 1
        0 0 1
        .34.25q.41-1.2.5-1.94.1-.96-.46-1.06-.67-.13-1.56-.03-.87.1-1.61.24-.73.14-1.02.08-.3-.05-.27-.3v-.02l.03-.04a1
        1 0 0 1 .25-.36q.15-.15.48-.23t.56-.13.84-.1l.96-.12q.87-.12
        1.57 0 1.13.22 1.37 1.3.1.35.07.62m4.66
        7.6q-.4-.08-.57-.3t-.14-.78.15-.92a12 12 0 0 0
        .21-1.03q.09-.53.24-1.62.15-1.08.33-2.2l.1-.58.07-.42.04-.23.02-.19a13
        13 0 0 0-1.25-.07q-.8-.02-1.06-.07-.52-.1-.5-.42.04-.42.6-.52a6
        6 0 0 1 1.38-.06q.81.03
        1.03-.03.11-.07.25-.5.13-.44.2-1.16.06-.7.22-1.26.1-.36.37-.5a1
        1 0 0 1 .54-.08q.35.07.35.35t-.2 1.57q-.18 1.32-.2
        1.57l.74.04q.64.02.96.08.75.14.75.52 0 .6-1.83.53l-.8-.03-.4
        1.98a32 32 0 0 0-.54 3.7q-.15 1.83-.2 2.09-.17.65-.86.53m-48.09
        9.53a35 35 0 0 1
        1.7-1.87l1.52-1.62q.57-.61.72-.95.24-.54.32-1.39.11-.86.06-1.08-.1-.13-.53-.2-.79-.14-2.4.03-3.3.33-6.77
        3.93-1.41 1.5-1.75 2.14-.29.54-.58 1.39-1.16 3.16.68 3.45.49.07
        1.28-.07.84-.16 2.92-1.51a14 14 0 0 0 2.83-2.25m6.18-5.6a16 16 0
        0 1-2.28 3.63 31 31 0 0 1-3.4 3.63q-1.79 1.63-3.44 2.74t-2.3
        1.01q-.09 0-.31.13-.2.14-.32.2-.46.18-1.46.18a11 11 0 0
        1-1.82-.1q-.64-.1-.93-.31t-.52-.8q-.38-.9-.05-2.44a12 12 0 0 1
        1.16-3.03q1.31-2.4 3.9-4.44a15 15 0 0 1 4.6-2.67 7 7 0 0 1
        2.3-.48q.15 0 1-.37.85-.36 1.25-.29.25.04.64-.14.4-.2.94-.1
        1.16.19 1.43 1.15.28.94-.39 2.5m9.16 2.05q.64.1.75.92.11.8-.14
        1.61c-.35 1.06-1.46 3.33-3.43 6.95q-.76 1.44-1.22
        1.95-.46.49-1.02.4-.47-.07-.3-.55.04-.1 1.93-3.53 1.83-3.27
        2.38-4.9.12-.36.09-.61-.03-.28-.1-.35-.04-.09-.08-.1-.3-.05-1.92
        1.1a31 31 0 0 0-3.11 2.46 48 48 0 0 0-2.22 2.1q-.64.68-1.52
        1.92-1.06 1.48-1.43 1.92-.38.46-.62.42a.3.3 0 0 1-.16-.1 1 1 0 0
        1-.16-.22q-.07-.15-.06-.45.03-.29.18-.66.2-.48.7-1.4l1.48-2.73q.95-1.75
        1.86-3.57a30 30 0 0 1 1.62-3q.56-.74
        1.05-.66.23.04.26.23.05.16-.13.62-.17.44-1.59 3.37l-1.12
        2.32.61-.64q1.17-1.22 1.8-1.75.64-.55 2.03-1.48 2.62-1.76
        3.59-1.6m7.42-3.35q.63-1.23
        1.03-1.84t.62-.75q.23-.15.47-.11a.4.4 0 0 1
        .25.15q.1.12.07.27c-.07.27-.63 1.69-1.73 4.37q-1.72 4.23-3.58
        8.68l-2
        4.83q-.36.78-1.13.67-.37-.06-.46-.31-.1-.24.1-.9.2-.68.78-2.08l1.88-4.45a399
        399 0 0 0 2.39-5.7q.59-1.37 1.31-2.83m4.65
        5.02q.31.05.34.27.04.2-.05.63a48 48 0 0 1-1.92 5.64c-1.12
        2.91-1.84 4.58-2.13 4.88q-.53.3-.98.23a1 1 0 0 1-.45-.18 1 1 0 0
        1-.18-.25v-.19c.1-.38.68-1.95 1.7-4.62 1-2.55 1.66-4.17
        2.01-4.95q.5-1.12.99-1.33.4-.17.67-.13m.86-3.77a1 1 0 0 1
        .5-.66q.39-.24.65-.19.22.04.47.3.26.23.2.55-.08.33-.45.73-.38.4-.78.33a.7.7
        0 0 1-.5-.34q-.18-.31-.09-.72m9.63 5.8q.61.1.86.92.25.81.15
        1.62c-.12 1.07-.74 3.35-1.9 7q-.45 1.44-.78
        1.96-.33.49-.86.41-.45-.07-.38-.55.01-.11 1.15-3.55 1.1-3.29
        1.3-4.94.05-.35-.02-.6-.07-.28-.15-.36-.06-.09-.1-.09-.27-.04-1.57
        1.1a22 22 0 0 0-2.42 2.5q-1.19 1.44-1.66 2.13t-1.05 1.94q-.71
        1.48-.97 1.92-.26.47-.5.43a.3.3 0 0 1-.15-.1 1 1 0 0 1-.2-.21 1
        1 0 0 1-.13-.46q-.02-.29.05-.66.1-.48.39-1.41l.86-2.74q.56-1.76
        1.06-3.6.7-2.51.96-3.02.38-.74.84-.67.22.04.28.22.08.17 0
        .63t-.86 3.4l-.61 2.33.45-.64q.85-1.23
        1.34-1.78t1.6-1.5q2.1-1.79 3.02-1.63m10.6 5.2a.3.3 0 0 0
        .08-.17.4.4 0 0
        0-.08-.22l-.29-.4-.2-.28q-.41-.55-.63-.7t-.63-.22q-.84-.14-1.28-.05-.43.07-.99.48-1.73
        1.26-1.85 1.69.06.03.3.07 1.67.26 4.8.06.3-.01.51-.1t.27-.16m.66
        3.8q.7-.47.95-.43.26.05.26.37 0 .42-.7 1.3a8 8 0 0 1-1.46
        1.44q-2.48 1.82-4.68
        1.5-1.54-.23-2.53-1.68-.98-1.46-.75-3.66.18-1.8.93-3a8 8 0 0 1
        2.32-2.25q1.56-1.09 2.68-.9.28.05.86.2.88.22
        1.22.41.35.17.75.61t.66 1.11q.29.68.27 1.27 0
        .42-.19.74-.17.3-.4.47t-.65.3q-.42.1-.73.13l-.8.06q-1.77.12-3.6-.04l-1.56-.16-.14.54a5
        5 0 0 0-.12.63q-.1 1.02.66 2.18.7 1.1 1.72 1.26.8.12 1.83-.3a8 8
        0 0 0 1.76-1.05q.75-.59 1.44-1.05"
            aria-label="Listat Online"
            style="fill:#000f66;fill-opacity:1;stroke-width:.090817"
            transform="matrix(17.1276 0 0 25.66027 2148.55 -6152.32)" />
    </g>
</svg>
