<svg xmlns="http://www.w3.org/2000/svg" xmlns:xlink="http://www.w3.org/1999/xlink" width="64" height="64"><defs><linearGradient id="a"><stop offset="0" style="stop-color:#ffffe4;stop-opacity:1"/><stop offset="1" style="stop-color:#caca2d;stop-opacity:1"/></linearGradient><linearGradient xlink:href="#a" id="c" x1="-1.5" x2="155" y1="250" y2="195" gradientTransform="matrix(.25 0 0 .25 1.5 -.5)" gradientUnits="userSpaceOnUse"/><filter id="b" width="1.1" height="1.1" x="-.1" y="-.1" style="color-interpolation-filters:sRGB"><feGaussianBlur stdDeviation="1.7"/></filter></defs><path d="M115.6 184.6c-12.2 1-24.5.8-36.5 3.2-3.7-3-8.2 3-6.2 6.4-4-5.6-12.7-7.5-17.8-2.4-8.5 6.2-41 16.3-29.1 22.5 5 2 11.6.6 15.5 5 2.4 6.4-6.2 10.2-8.5 15.5-2.7 5.2-10.1 9.3-9.6 15.2 6 4 13.6 1 20 3.6 30.8 3.8 61.6 6.7 92.4 10.7 0-16.8-.5-33.5-.2-50.3 5.6-3.8 13.6-.9 18.7-5.8-3.1-6.8-11.8-7-16.8-11.8q-10.2-6.7-21.2-11.8z" style="opacity:.7;fill:#000;fill-opacity:1;stroke:none;filter:url(#b)" transform="matrix(.44254 0 0 .72765 -7 -131.3)"/><path d="M21 6.3c-2.4.9-3.6 3.3-5.5 4.9-3.3 2.9-7 5.1-10 8.3-.8 1-3.5 2.2-2.5 3.6q2.1 1 4.1 2 4.9 2 9.6 4.4l12.2 6q.6-1 1-2.3l7-20.4q-7-2.8-14-6z" style="fill:#dee5fc;fill-opacity:1;stroke:#000;stroke-width:.065;stroke-opacity:1"/><path d="M44.3 3.4c-3.9.7-7.9.3-11.7 1.2-2.3.4-4.6 1.2-7 1.2-1.8 1 1 3.8 1 5.5q3.7 9.3 7.3 18.4c8.7-3.4 17.5-6.7 26.6-8.7 3-1.3-.6-3.1-1.7-4.4q-6.7-6.7-13.7-13l-.4-.2Z" style="fill:#f9d6ce;fill-opacity:1;stroke:#000;stroke-width:.0649909;stroke-opacity:1"/><path d="M21.5 10.1c-2 2.7-3 6-4.5 9.1a520 520 0 0 1-13.8 30c.9 2.4 4.7 1.5 6.8 2.6 13 2.9 26.3 3.3 39.2 6.5 2 1 4.5 1.5 3.6-1.5 0-13.6.2-27.2-.2-40.9-2-2.3-5.7-1.2-8.5-2.2-5.3-1-10.6-1.1-15.9-2.1z" style="fill:url(#c);fill-opacity:1;stroke:#000;stroke-width:.0649909;stroke-opacity:1"/><g style="font-style:oblique;font-weight:700;font-size:17px;line-height:1.25;font-family:Purisa;fill:#000f66;fill-opacity:1;stroke-width:.1"><path d="M624.5 709.8c24.4 45 118.6-22.2 115.7 40.3-50 26.2-171.6 25.6-137.8-59.5 23-55.4 55.8-106 80.1-160.8 20-46.7 38.4-.6 14.8 23.3-24.2 52.2-50.8 103.4-72.8 156.6M881 604.9c-5.8 68.5-34.2 132.8-69.3 191.1-24-65.8 29-136 62.3-187.3zm17-65.7c37.2-38.4.2 51.5 0 0M866.7 802c29.9-9.6 93 60.4 80.4-10.9-27.4-43.9-61.8-129.6 14.3-143 37.4-19 76.1 68 31 30.2-47.7-19.3-79.7 76-20.7 77.4 43.8 61.8-80.6 143.5-105.3 63.6l-1-8.6zm212 89c-20.6-67.3 23.5-129.7 33.5-194.6-49.8-11.4-23.4-49.5 7.7-54 5.5-22.8 42.4-85.5 29-26 2 27.9 49.5 65-2.1 70.7-55.5 55-12 148.3-68 204m119-20.6c25.6 65.3 90.5-60.2 22.9-32.4-13.4 5-20.4 19.2-22.7 32.4m116-90.9c-14.6 51.7 1 144.1-78.6 129.5-66.2 26.4-83.2-82.5-19.4-91 36.4 2.8 116-23.1 55.6-58.3-28.8-3.1-65.2-23.9-14-31.8 29.1-5.4 69.2 17.6 56.5 51.6m79.8 195c-29.8-66.9 14.6-136.7 4.9-205.4-31.8-2.7-33.2-40.6 1.6-35.1 9.8-14.2 19.1-96.1 29-52.8-7.5 34.5 61.2 72.6 3.6 90.3-42.9 60.3 6.2 143.4-39 202.8m-823.8 244.5c19.6-54.3 104.4-113.5 53.5-173-60.9-29.7-111 41.3-141.2 86-33.5 48.7-62.8 110.3-43.2 170.2 63.2 37.2 93-51.5 131-83.2M676 1075.3c-48.9 113-103.6 239.5-220.5 296.8-77.7 9.2-86.6-97.2-58.1-148.4 35.3-100.8 106.4-200 214-229.7 50.8-40.8 93.6 41.5 64.6 81.3m156.9 52.6c33.5 67-16.3 134-33.3 197.8-2.4 23.2-29.5 113.8-49.9 68.9 16-68.5 61.6-128.6 63.6-200.6-63.1 0-84 69-112.8 113-29.1 28.2-45.9 104.8-73.8 107.5-1.3-79.5 54.4-144.3 67.5-221-2-22.8 38.2-100.3 42.8-45.8-4.6 28-51.3 99.2-27.2 97.2 33.4-45.6 66.2-98.9 123-117.3m127.2-86c-22.8-35.3 64.5-72.2 31.4-17.8-37.3 139.6-76.5 278.8-114.8 418.1-62-36.5 18-111 15.3-164.8 22-78.7 42.4-157.9 68-235.5m79.7 128.9c23.5 82.6-47.1 154.4-39.9 236.8 1.9 39.1-65.9 54.5-41.3 2.8 18-74.3 36.4-149.5 61.3-221.5a52 52 0 0 1 20-18.1m14.6-96.8c19.4-52.7 26.7 59.3.1 8zm164.9 148.8c43.4 72.5-8.9 152.2-9.9 227.9 17.6 32.5-52.6 90.7-32.3 25.4 12-62.6 34-124 33.4-188.4-64.2 13.3-76.5 87-99.5 137.6-10.2 16.3-24 91.6-48.4 62.3 3.3-79 39.5-153.1 40.4-232.7 1.8-37.5 41.3-44.1 30.6-.2-6 21.7-33.8 84-7.3 76.6 21.4-42.6 45.8-90.2 93-108.5m181.5 133.5c28.3-78.8-144-35-70.2 8.7 23.6 1.3 48.6 2 70.4-8.7m11.3 97.5c36.3 56.7-47 121-100.8 101.1-66.7-34.5-59.5-124-43.4-185.7 13.8-48.9 51.5-112.2 111-98.1 55.8 18.9 68.8 133.5-6.8 124.8-55.7-8.8-121.6 40.2-74.5 94 33.5 40 105.2 11 114.5-36.1" aria-label="Listat Online" style="fill:#000f66;fill-opacity:1;stroke-width:2" transform="matrix(.033 0 0 .035 0 -1.6)"/></g></svg>